<?xml version="1.0" standalone="no"?>
<!DOCTYPE svg PUBLIC "-//W3C//DTD SVG 20010904//EN"
 "http://www.w3.org/TR/2001/REC-SVG-20010904/DTD/svg10.dtd">
<svg version="1.0" xmlns="http://www.w3.org/2000/svg"
 width="233.000000pt" height="168.000000pt" viewBox="0 0 233.000000 168.000000"
 preserveAspectRatio="xMidYMid meet">
<metadata>
Created by potrace 1.10, written by Peter Selinger 2001-2011
</metadata>
<g transform="translate(0.000000,168.000000) scale(0.100000,-0.100000)"
fill="#000000" stroke="none">
<path d="M1560 1420 l-62 -70 -153 0 -152 0 -13 48 c-23 84 -17 82 -236 82
-214 0 -215 0 -234 -68 -5 -20 -10 -42 -10 -49 0 -9 -63 -13 -246 -15 l-246
-3 -29 -33 -29 -32 0 -418 c0 -313 3 -423 13 -442 26 -53 64 -61 270 -58 103
2 187 1 187 -1 0 -2 -32 -39 -72 -83 -71 -79 -71 -79 -51 -99 19 -20 21 -17
596 632 527 594 576 653 560 665 -10 7 -21 14 -24 14 -4 0 -35 -31 -69 -70z
m-417 -50 l19 -66 151 4 151 5 -64 -73 c-36 -40 -81 -92 -101 -116 l-36 -43
-48 49 c-107 109 -264 144 -405 91 -161 -61 -258 -213 -248 -390 7 -121 69
-237 156 -291 l39 -25 -50 -58 -51 -58 -214 3 c-211 3 -214 3 -233 27 -18 22
-19 44 -19 428 l0 404 25 25 25 25 243 -2 242 -2 19 67 19 66 181 -2 180 -3
19 -65z m-45 -204 c26 -14 67 -45 92 -70 l44 -46 -22 -22 -22 -22 -35 41
c-127 148 -376 117 -466 -58 -41 -82 -41 -187 1 -269 18 -35 79 -97 115 -117
15 -9 15 -13 4 -31 -18 -29 -27 -28 -76 8 -89 66 -138 177 -131 299 6 93 34
158 98 221 105 106 267 133 398 66z m-118 -86 c-8 -5 -23 -10 -33 -10 -59 0
-147 -77 -171 -148 -32 -93 -12 -185 53 -246 39 -37 39 -24 1 49 -62 118 -27
241 85 297 22 11 55 31 72 45 32 23 34 23 65 8 44 -21 120 -93 116 -110 -7
-32 -306 -358 -320 -349 -4 3 -6 9 -3 14 3 4 -10 19 -28 33 -51 39 -88 116
-88 184 0 32 7 75 16 96 22 52 84 112 136 130 50 18 124 23 99 7z"/>
<path d="M260 1200 l0 -40 84 0 83 0 0 40 0 40 -83 0 -84 0 0 -40z"/>
<path d="M207 1073 c-4 -3 1 -12 11 -19 23 -18 326 -19 365 -1 15 6 27 15 27
20 0 9 -394 10 -403 0z"/>
<path d="M218 656 c-10 -7 -15 -16 -11 -19 9 -10 403 -9 403 1 0 21 -60 29
-212 30 -116 0 -168 -3 -180 -12z"/>
<path d="M312 1418 l3 -33 105 0 105 0 0 30 0 30 -108 3 -108 3 3 -33z"/>
<path d="M1410 836 l0 -136 31 0 c31 0 31 0 27 47 l-3 48 42 6 c59 7 83 32 83
84 0 60 -24 78 -111 83 l-69 4 0 -136z m118 72 c26 -26 -1 -68 -44 -68 -21 0
-24 4 -24 40 0 37 2 40 28 40 15 0 33 -5 40 -12z"/>
<path d="M1640 835 l0 -135 30 0 30 0 0 135 0 135 -30 0 -30 0 0 -135z"/>
<path d="M1818 955 c-39 -22 -58 -65 -58 -131 0 -51 3 -59 35 -91 32 -32 37
-34 92 -31 55 3 58 5 61 30 3 26 2 27 -33 17 -67 -19 -97 8 -97 88 0 70 36 97
103 79 22 -6 27 -4 32 15 8 30 6 32 -56 36 -34 2 -61 -2 -79 -12z"/>
<path d="M1450 518 c-6 -29 -13 -63 -16 -75 -4 -13 -2 -23 4 -23 6 0 12 12 14
27 2 22 10 29 37 34 50 10 66 43 35 73 -8 9 -26 16 -39 16 -20 0 -25 -7 -35
-52z m70 7 c0 -18 -7 -26 -25 -31 -33 -8 -38 -3 -29 30 9 37 54 38 54 1z"/>
<path d="M1575 558 c-3 -7 -11 -41 -19 -75 l-14 -63 41 2 c39 1 39 2 9 5 -29
4 -33 7 -28 26 3 12 6 25 6 29 0 4 15 9 33 11 l32 4 -31 1 c-28 2 -31 5 -26
27 4 21 10 25 38 25 19 0 34 5 34 10 0 15 -70 12 -75 -2z"/>
<path d="M1674 543 c-3 -16 -10 -44 -15 -63 -14 -54 -12 -60 20 -60 43 0 60 9
76 41 20 38 19 65 -5 89 -30 30 -68 26 -76 -7z m74 -35 c4 -43 -24 -78 -62
-78 -23 0 -24 3 -16 33 4 17 11 45 14 60 6 24 11 28 34 25 23 -3 27 -8 30 -40z"/>
<path d="M1800 513 c-6 -32 -14 -66 -16 -75 -3 -10 -1 -18 4 -18 10 0 37 138
29 146 -3 3 -10 -21 -17 -53z"/>
<path d="M1875 540 c-10 -19 -29 -54 -42 -77 -14 -24 -21 -43 -16 -43 6 0 15
11 21 25 8 17 20 25 37 25 20 0 25 -5 25 -25 0 -14 5 -25 11 -25 11 0 3 96
-11 135 -6 17 -9 16 -25 -15z m25 -47 c0 -7 -9 -13 -20 -13 -17 0 -18 3 -8 25
8 19 14 22 20 13 4 -7 8 -19 8 -25z"/>
</g>
</svg>
